<svg width="214" height="140" viewBox="0 0 214 140" fill="none" xmlns="http://www.w3.org/2000/svg">
<path d="M169 0H49C43.4772 0 39 4.47715 39 10V130C39 135.523 43.4772 140 49 140H169C174.523 140 179 135.523 179 130V10C179 4.47715 174.523 0 169 0Z" fill="#F5FAF9"/>
<g filter="url(#filter0_d_324_5205)">
<path d="M143 10H8C5.23858 10 3 12.2386 3 15V40C3 42.7614 5.23858 45 8 45H143C145.761 45 148 42.7614 148 40V15C148 12.2386 145.761 10 143 10Z" fill="white"/>
</g>
<path d="M72 18H46C44.3431 18 43 19.3431 43 21C43 22.6569 44.3431 24 46 24H72C73.6569 24 75 22.6569 75 21C75 19.3431 73.6569 18 72 18Z" fill="#F0FAF8"/>
<path d="M90 31H46C44.3431 31 43 32.3431 43 34C43 35.6569 44.3431 37 46 37H90C91.6569 37 93 35.6569 93 34C93 32.3431 91.6569 31 90 31Z" fill="#C9E4DF"/>
<path d="M30 13H11C8.23858 13 6 15.2386 6 18V37C6 39.7614 8.23858 42 11 42H30C32.7614 42 35 39.7614 35 37V18C35 15.2386 32.7614 13 30 13Z" fill="#17776A"/>
<path d="M18.2222 30.7798H20.2222L20.2442 30.0098C20.2442 28.9978 20.8822 28.7338 21.7842 28.4478C22.689 28.1904 23.4854 27.6454 24.053 26.8952C24.6206 26.1451 24.9285 25.2305 24.9302 24.2898C24.95 23.7154 24.8504 23.1432 24.6376 22.6094C24.4248 22.0755 24.1036 21.5916 23.6941 21.1884C23.2846 20.7851 22.7959 20.4713 22.2589 20.2667C21.7219 20.0621 21.1482 19.9712 20.5742 19.9998C19.9676 19.9865 19.3647 20.0967 18.8019 20.3235C18.2392 20.5503 17.7284 20.889 17.3005 21.3192C16.8726 21.7493 16.5365 22.2619 16.3126 22.8258C16.0888 23.3897 15.9818 23.9933 15.9982 24.5998H18.0662C18.0584 24.2649 18.1174 23.9318 18.24 23.62C18.3625 23.3083 18.546 23.0241 18.7798 22.7842C19.0136 22.5443 19.2929 22.3535 19.6013 22.2229C19.9098 22.0923 20.2412 22.0246 20.5762 22.0238C20.8783 22.0063 21.1806 22.054 21.4626 22.1637C21.7446 22.2734 21.9997 22.4426 22.2105 22.6596C22.4213 22.8767 22.5829 23.1366 22.6843 23.4217C22.7857 23.7068 22.8246 24.0103 22.7982 24.3118C22.7849 24.7997 22.6152 25.2704 22.3142 25.6546C22.0132 26.0388 21.5968 26.3161 21.1262 26.4458L20.4002 26.7338C19.6894 26.905 19.0689 27.337 18.6614 27.9441C18.254 28.5511 18.0894 29.2891 18.2002 30.0118L18.2222 30.7798ZM19.2122 35.5338C19.4081 35.5407 19.6033 35.5083 19.7864 35.4385C19.9695 35.3687 20.1368 35.2629 20.2783 35.1274C20.4198 34.9918 20.5327 34.8293 20.6104 34.6493C20.688 34.4694 20.7287 34.2757 20.7302 34.0798C20.7285 33.884 20.6875 33.6905 20.6098 33.5108C20.532 33.3311 20.4191 33.1688 20.2776 33.0334C20.1361 32.8981 19.9689 32.7925 19.786 32.7228C19.603 32.6531 19.4079 32.6208 19.2122 32.6278C19.0165 32.6208 18.8215 32.6531 18.6385 32.7228C18.4555 32.7925 18.2883 32.8981 18.1468 33.0334C18.0053 33.1688 17.8924 33.3311 17.8147 33.5108C17.7369 33.6905 17.696 33.884 17.6942 34.0798C17.6957 34.2757 17.7365 34.4694 17.8141 34.6493C17.8917 34.8293 18.0046 34.9918 18.1461 35.1274C18.2876 35.2629 18.4549 35.3687 18.638 35.4385C18.8211 35.5083 19.0164 35.5407 19.2122 35.5338Z" fill="white"/>
<g filter="url(#filter1_d_324_5205)">
<path d="M71 53H206C207.326 53 208.598 53.5268 209.536 54.4645C210.473 55.4021 211 56.6739 211 58V83C211 84.3261 210.473 85.5979 209.536 86.5355C208.598 87.4732 207.326 88 206 88H71C69.6739 88 68.4021 87.4732 67.4645 86.5355C66.5268 85.5979 66 84.3261 66 83V58C66 56.6739 66.5268 55.4021 67.4645 54.4645C68.4021 53.5268 69.6739 53 71 53V53Z" fill="white"/>
</g>
<path d="M135 61H109C107.343 61 106 62.3431 106 64C106 65.6569 107.343 67 109 67H135C136.657 67 138 65.6569 138 64C138 62.3431 136.657 61 135 61Z" fill="#F0FAF8"/>
<path d="M153 74H109C107.343 74 106 75.3431 106 77C106 78.6569 107.343 80 109 80H153C154.657 80 156 78.6569 156 77C156 75.3431 154.657 74 153 74Z" fill="#C9E4DF"/>
<path d="M93 56H74C71.2386 56 69 58.2386 69 61V80C69 82.7614 71.2386 85 74 85H93C95.7614 85 98 82.7614 98 80V61C98 58.2386 95.7614 56 93 56Z" fill="#17776A"/>
<path d="M81.2222 73.7798H83.2222L83.2442 73.0098C83.2442 71.9978 83.8822 71.7338 84.7842 71.4478C85.689 71.1904 86.4854 70.6454 87.053 69.8952C87.6206 69.1451 87.9285 68.2305 87.9302 67.2898C87.95 66.7154 87.8504 66.1432 87.6376 65.6094C87.4248 65.0755 87.1036 64.5916 86.6941 64.1884C86.2846 63.7851 85.7959 63.4713 85.2589 63.2667C84.7219 63.0621 84.1482 62.9712 83.5742 62.9998C82.9676 62.9865 82.3647 63.0967 81.8019 63.3235C81.2392 63.5503 80.7284 63.889 80.3005 64.3192C79.8726 64.7493 79.5365 65.2619 79.3126 65.8258C79.0888 66.3897 78.9818 66.9933 78.9982 67.5998H81.0662C81.0584 67.2649 81.1174 66.9318 81.24 66.62C81.3625 66.3083 81.546 66.0241 81.7798 65.7842C82.0136 65.5443 82.2929 65.3535 82.6013 65.2229C82.9098 65.0923 83.2412 65.0246 83.5762 65.0238C83.8783 65.0063 84.1806 65.054 84.4626 65.1637C84.7446 65.2734 84.9997 65.4426 85.2105 65.6596C85.4213 65.8767 85.5829 66.1366 85.6843 66.4217C85.7857 66.7068 85.8246 67.0103 85.7982 67.3118C85.7849 67.7997 85.6152 68.2704 85.3142 68.6546C85.0132 69.0388 84.5968 69.3161 84.1262 69.4458L83.4002 69.7338C82.6894 69.905 82.0689 70.337 81.6614 70.9441C81.254 71.5511 81.0894 72.2891 81.2002 73.0118L81.2222 73.7798ZM82.2122 78.5338C82.4081 78.5407 82.6033 78.5083 82.7864 78.4385C82.9695 78.3687 83.1368 78.2629 83.2783 78.1274C83.4198 77.9918 83.5327 77.8293 83.6104 77.6493C83.688 77.4694 83.7287 77.2757 83.7302 77.0798C83.7285 76.884 83.6875 76.6905 83.6098 76.5108C83.532 76.3311 83.4191 76.1688 83.2776 76.0334C83.1361 75.8981 82.9689 75.7925 82.786 75.7228C82.603 75.6531 82.4079 75.6208 82.2122 75.6278C82.0165 75.6208 81.8215 75.6531 81.6385 75.7228C81.4555 75.7925 81.2883 75.8981 81.1468 76.0334C81.0053 76.1688 80.8924 76.3311 80.8147 76.5108C80.7369 76.6905 80.696 76.884 80.6942 77.0798C80.6957 77.2757 80.7365 77.4694 80.8141 77.6493C80.8917 77.8293 81.0046 77.9918 81.1461 78.1274C81.2876 78.2629 81.4549 78.3687 81.638 78.4385C81.8211 78.5083 82.0164 78.5407 82.2122 78.5338Z" fill="white"/>
<g filter="url(#filter2_d_324_5205)">
<path d="M28 96H163C164.326 96 165.598 96.5268 166.536 97.4645C167.473 98.4021 168 99.6739 168 101V126C168 127.326 167.473 128.598 166.536 129.536C165.598 130.473 164.326 131 163 131H28C26.6739 131 25.4021 130.473 24.4645 129.536C23.5268 128.598 23 127.326 23 126V101C23 99.6739 23.5268 98.4021 24.4645 97.4645C25.4021 96.5268 26.6739 96 28 96V96Z" fill="white"/>
</g>
<path d="M92 104H66C64.3431 104 63 105.343 63 107C63 108.657 64.3431 110 66 110H92C93.6569 110 95 108.657 95 107C95 105.343 93.6569 104 92 104Z" fill="#F0FAF8"/>
<path d="M110 117H66C64.3431 117 63 118.343 63 120C63 121.657 64.3431 123 66 123H110C111.657 123 113 121.657 113 120C113 118.343 111.657 117 110 117Z" fill="#C9E4DF"/>
<path d="M50 99H31C28.2386 99 26 101.239 26 104V123C26 125.761 28.2386 128 31 128H50C52.7614 128 55 125.761 55 123V104C55 101.239 52.7614 99 50 99Z" fill="#17776A"/>
<path d="M38.2222 116.78H40.2222L40.2442 116.01C40.2442 114.998 40.8822 114.734 41.7842 114.448C42.689 114.19 43.4854 113.645 44.053 112.895C44.6206 112.145 44.9285 111.23 44.9302 110.29C44.95 109.715 44.8504 109.143 44.6376 108.609C44.4248 108.076 44.1036 107.592 43.6941 107.188C43.2846 106.785 42.7959 106.471 42.2589 106.267C41.7219 106.062 41.1482 105.971 40.5742 106C39.9676 105.987 39.3647 106.097 38.8019 106.323C38.2392 106.55 37.7284 106.889 37.3005 107.319C36.8726 107.749 36.5365 108.262 36.3126 108.826C36.0888 109.39 35.9818 109.993 35.9982 110.6H38.0662C38.0584 110.265 38.1174 109.932 38.24 109.62C38.3625 109.308 38.546 109.024 38.7798 108.784C39.0136 108.544 39.2929 108.353 39.6013 108.223C39.9098 108.092 40.2412 108.025 40.5762 108.024C40.8783 108.006 41.1806 108.054 41.4626 108.164C41.7446 108.273 41.9997 108.443 42.2105 108.66C42.4213 108.877 42.5829 109.137 42.6843 109.422C42.7857 109.707 42.8246 110.01 42.7982 110.312C42.7849 110.8 42.6152 111.27 42.3142 111.655C42.0132 112.039 41.5968 112.316 41.1262 112.446L40.4002 112.734C39.6894 112.905 39.0689 113.337 38.6614 113.944C38.254 114.551 38.0894 115.289 38.2002 116.012L38.2222 116.78ZM39.2122 121.534C39.4081 121.541 39.6033 121.508 39.7864 121.439C39.9695 121.369 40.1368 121.263 40.2783 121.127C40.4198 120.992 40.5327 120.829 40.6104 120.649C40.688 120.469 40.7287 120.276 40.7302 120.08C40.7285 119.884 40.6875 119.691 40.6098 119.511C40.532 119.331 40.4191 119.169 40.2776 119.033C40.1361 118.898 39.9689 118.792 39.786 118.723C39.603 118.653 39.4079 118.621 39.2122 118.628C39.0165 118.621 38.8215 118.653 38.6385 118.723C38.4555 118.792 38.2883 118.898 38.1468 119.033C38.0053 119.169 37.8924 119.331 37.8147 119.511C37.7369 119.691 37.696 119.884 37.6942 120.08C37.6957 120.276 37.7365 120.469 37.8141 120.649C37.8917 120.829 38.0046 120.992 38.1461 121.127C38.2876 121.263 38.4549 121.369 38.638 121.439C38.8211 121.508 39.0164 121.541 39.2122 121.534Z" fill="white"/>
<defs>
<filter id="filter0_d_324_5205" x="0" y="9" width="151" height="41" filterUnits="userSpaceOnUse" color-interpolation-filters="sRGB">
<feFlood flood-opacity="0" result="BackgroundImageFix"/>
<feColorMatrix in="SourceAlpha" type="matrix" values="0 0 0 0 0 0 0 0 0 0 0 0 0 0 0 0 0 0 127 0" result="hardAlpha"/>
<feOffset dy="2"/>
<feGaussianBlur stdDeviation="1.5"/>
<feComposite in2="hardAlpha" operator="out"/>
<feColorMatrix type="matrix" values="0 0 0 0 0.654201 0 0 0 0 0.672934 0 0 0 0 0.691667 0 0 0 0.2 0"/>
<feBlend mode="normal" in2="BackgroundImageFix" result="effect1_dropShadow_324_5205"/>
<feBlend mode="normal" in="SourceGraphic" in2="effect1_dropShadow_324_5205" result="shape"/>
</filter>
<filter id="filter1_d_324_5205" x="63" y="52" width="151" height="41" filterUnits="userSpaceOnUse" color-interpolation-filters="sRGB">
<feFlood flood-opacity="0" result="BackgroundImageFix"/>
<feColorMatrix in="SourceAlpha" type="matrix" values="0 0 0 0 0 0 0 0 0 0 0 0 0 0 0 0 0 0 127 0" result="hardAlpha"/>
<feOffset dy="2"/>
<feGaussianBlur stdDeviation="1.5"/>
<feComposite in2="hardAlpha" operator="out"/>
<feColorMatrix type="matrix" values="0 0 0 0 0.654201 0 0 0 0 0.672934 0 0 0 0 0.691667 0 0 0 0.2 0"/>
<feBlend mode="normal" in2="BackgroundImageFix" result="effect1_dropShadow_324_5205"/>
<feBlend mode="normal" in="SourceGraphic" in2="effect1_dropShadow_324_5205" result="shape"/>
</filter>
<filter id="filter2_d_324_5205" x="20" y="95" width="151" height="41" filterUnits="userSpaceOnUse" color-interpolation-filters="sRGB">
<feFlood flood-opacity="0" result="BackgroundImageFix"/>
<feColorMatrix in="SourceAlpha" type="matrix" values="0 0 0 0 0 0 0 0 0 0 0 0 0 0 0 0 0 0 127 0" result="hardAlpha"/>
<feOffset dy="2"/>
<feGaussianBlur stdDeviation="1.5"/>
<feComposite in2="hardAlpha" operator="out"/>
<feColorMatrix type="matrix" values="0 0 0 0 0.654201 0 0 0 0 0.672934 0 0 0 0 0.691667 0 0 0 0.2 0"/>
<feBlend mode="normal" in2="BackgroundImageFix" result="effect1_dropShadow_324_5205"/>
<feBlend mode="normal" in="SourceGraphic" in2="effect1_dropShadow_324_5205" result="shape"/>
</filter>
</defs>
</svg>
