<svg width="68" height="68" viewBox="0 0 68 68" fill="none" xmlns="http://www.w3.org/2000/svg">
<rect width="68" height="68" rx="34" />
<path fill-rule="evenodd" clip-rule="evenodd" d="M47.3333 50.6666H29C28.1159 50.6668 27.2679 50.3157 26.6427 49.6905C26.0175 49.0654 25.6664 48.2174 25.6667 47.3333V30.6666C25.6664 29.7825 26.0175 28.9345 26.6427 28.3093C27.2679 27.6841 28.1159 27.333 29 27.3333H47.3333C48.2175 27.333 49.0655 27.6841 49.6906 28.3093C50.3158 28.9345 50.6669 29.7825 50.6667 30.6666V47.3333C50.6666 49.1742 49.1743 50.6665 47.3333 50.6666Z" stroke="#323232" stroke-width="2.5" stroke-linecap="round" stroke-linejoin="round"/>
<path d="M43.2822 27.3333L42.0048 20.0884C41.8515 19.2177 41.3585 18.4435 40.6343 17.9364C39.91 17.4293 39.014 17.2308 38.1433 17.3845L20.0885 20.568C19.2177 20.7213 18.4436 21.2143 17.9365 21.9386C17.4294 22.6628 17.2309 23.5589 17.3846 24.4295L20.2787 40.843C20.432 41.7138 20.925 42.4879 21.6493 42.995C22.3736 43.5022 23.2697 43.7007 24.1404 43.5469L25.6667 43.2777" stroke="#323232" stroke-width="2.5" stroke-linecap="round" stroke-linejoin="round"/>
</svg>
