<svg width="40" height="40" viewBox="0 0 40 40" fill="none" xmlns="http://www.w3.org/2000/svg">
<path fill-rule="evenodd" clip-rule="evenodd" d="M13.3333 17.3958V19.2816C13.3333 22.7553 15.4881 25.8647 18.7406 27.0844L19.7074 27.4469C19.8961 27.5176 20.104 27.5176 20.2926 27.4469L21.2594 27.0844C24.5119 25.8647 26.6667 22.7553 26.6667 19.2816V17.3958C26.6667 16.6668 26.1929 16.0224 25.4971 15.805L20.4971 14.2425C20.1734 14.1413 19.8266 14.1413 19.5029 14.2425L14.5029 15.805C13.8071 16.0224 13.3333 16.6668 13.3333 17.3958Z" stroke="#323232" stroke-width="2.5" stroke-linecap="round" stroke-linejoin="round"/>
<circle cx="30.6106" cy="9.33333" r="3.33333" stroke="#323232" stroke-width="2.5" stroke-linecap="round" stroke-linejoin="round"/>
<path d="M27.967 7.30639C21.9225 3.48377 14.0258 4.42237 9.04579 9.55538C4.06574 14.6884 3.36637 22.6098 7.37004 28.5359C11.3737 34.4621 18.9837 36.7697 25.6045 34.0653C32.2253 31.3609 36.0433 24.3852 34.7529 17.3507" stroke="#323232" stroke-width="2.5" stroke-linecap="round" stroke-linejoin="round"/>
</svg>
