<svg width="40" height="40" viewBox="0 0 40 40" fill="none" xmlns="http://www.w3.org/2000/svg">
<path fill-rule="evenodd" clip-rule="evenodd" d="M25 27.4219V28.8362C25 31.4415 26.6161 33.7735 29.0555 34.6883L29.7805 34.9602C29.922 35.0133 30.078 35.0133 30.2194 34.9602L30.9445 34.6883C33.3839 33.7735 35 31.4415 35 28.8362V27.4219C35 26.8752 34.6447 26.3918 34.1228 26.2288L30.3728 25.0569C30.1301 24.981 29.8699 24.981 29.6272 25.0569L25.8772 26.2288C25.3553 26.3918 25 26.8752 25 27.4219V27.4219Z" stroke="#323232" stroke-width="2.5" stroke-linecap="round" stroke-linejoin="round"/>
<path d="M18.9046 26.6667C15.337 26.6668 11.9156 28.0841 9.39291 30.6067" stroke="#323232" stroke-width="2.5" stroke-linecap="round" stroke-linejoin="round"/>
<path d="M35 20C35 11.7157 28.2843 5 20 5C11.7157 5 5 11.7157 5 20C5 28.2843 11.7157 35 20 35" stroke="#323232" stroke-width="2.5" stroke-linecap="round" stroke-linejoin="round"/>
<path fill-rule="evenodd" clip-rule="evenodd" d="M25 16.25V17.0833V17.0833C25 19.8448 22.7614 22.0833 20 22.0833V22.0833C17.2386 22.0833 15 19.8448 15 17.0833V17.0833V16.25V16.25C15 13.4886 17.2386 11.25 20 11.25V11.25C22.7614 11.25 25 13.4886 25 16.25V16.25Z" stroke="#323232" stroke-width="2.5" stroke-linecap="round" stroke-linejoin="round"/>
</svg>
