<svg width="24" height="24" viewBox="0 0 24 24" fill="none" xmlns="http://www.w3.org/2000/svg">
<path d="M8.92798 16L8.42798 20" stroke="#323232" stroke-width="1.5" stroke-linecap="round" stroke-linejoin="round"/>
<path d="M20 11V5.428C20 4.08705 18.9129 3 17.572 3H5.428C4.08705 3 3 4.08705 3 5.428V13.572C3 14.9129 4.08705 16 5.428 16H12" stroke="#323232" stroke-width="1.5" stroke-linecap="round" stroke-linejoin="round"/>
<path d="M6.92798 20H12" stroke="#323232" stroke-width="1.5" stroke-linecap="round" stroke-linejoin="round"/>
<path fill-rule="evenodd" clip-rule="evenodd" d="M15 17.4948C15 19.1783 17.1183 20.4244 18.0607 20.8957C18.3373 21.0349 18.6635 21.0348 18.94 20.8953C19.8827 20.4238 22 19.1805 22 17.4948V15.0978C21.9919 14.8363 21.7878 14.6229 21.5268 14.6034C20.6406 14.5221 19.7923 14.2049 19.0702 13.6847C18.7299 13.4384 18.27 13.4384 17.9298 13.6847C17.2076 14.2049 16.3594 14.5221 15.4732 14.6034C15.2122 14.6229 15.0081 14.8363 15 15.0978L15 17.4948Z" stroke="#323232" stroke-width="1.5" stroke-linecap="round" stroke-linejoin="round"/>
<path d="M6.01721 11.2552L6.68099 11.8516L8.01721 10.6516" stroke="#323232" stroke-width="1.5" stroke-linecap="round" stroke-linejoin="round"/>
<path d="M11 7.5H16" stroke="#323232" stroke-width="1.5" stroke-linecap="round" stroke-linejoin="round"/>
<path d="M6.01721 7.25521L6.68099 7.85161L8.01721 6.65161" stroke="#323232" stroke-width="1.5" stroke-linecap="round" stroke-linejoin="round"/>
<path d="M11 11.5H14" stroke="#323232" stroke-width="1.5" stroke-linecap="round" stroke-linejoin="round"/>
</svg>
