<svg width="36" height="36" viewBox="0 0 36 36" fill="none" xmlns="http://www.w3.org/2000/svg">
<path d="M2.99502 31.5057H33.0075" stroke="#17776A" stroke-width="2.25" stroke-linecap="round" stroke-linejoin="round"/>
<path d="M12.7499 25.4356H23.2543" stroke="#17776A" stroke-width="2.25" stroke-linecap="round" stroke-linejoin="round"/>
<path d="M18.0003 25.4356V31.5056" stroke="#17776A" stroke-width="2.25" stroke-linecap="round" stroke-linejoin="round"/>
<path d="M4.49502 31.5057V21.0013C4.49502 20.1725 5.16687 19.5007 5.99564 19.5007H8.99689" stroke="#17776A" stroke-width="2.25" stroke-linecap="round" stroke-linejoin="round"/>
<path d="M27.0058 19.5007H30.007C30.8358 19.5007 31.5076 20.1726 31.5076 21.0014V31.5057" stroke="#17776A" stroke-width="2.25" stroke-linecap="round" stroke-linejoin="round"/>
<path d="M8.99795 31.5057V15.5346C8.99689 14.9974 9.28305 14.5006 9.74826 14.232L17.2514 9.94473C17.7126 9.68127 18.2788 9.68127 18.74 9.94473L26.2431 14.232C26.7083 14.5006 26.9945 14.9974 26.9935 15.5346V31.5057" stroke="#17776A" stroke-width="2.25" stroke-linecap="round" stroke-linejoin="round"/>
<path d="M18.0003 14.2605C17.9804 14.2605 17.9613 14.2684 17.9473 14.2825C17.9332 14.2965 17.9253 14.3156 17.9253 14.3355C17.9253 14.377 17.9589 14.4105 18.0003 14.4105C18.0417 14.4105 18.0753 14.377 18.0753 14.3355C18.0753 14.3156 18.0674 14.2965 18.0534 14.2825C18.0393 14.2684 18.0202 14.2605 18.0003 14.2605" stroke="#17776A" stroke-width="2.25" stroke-linecap="round" stroke-linejoin="round"/>
<path d="M22.5021 25.4356V31.5056" stroke="#17776A" stroke-width="2.25" stroke-linecap="round" stroke-linejoin="round"/>
<path d="M13.5002 31.5056V25.4356" stroke="#17776A" stroke-width="2.25" stroke-linecap="round" stroke-linejoin="round"/>
<path d="M18.0009 9.74659V3.74409C18.0009 3.3297 18.3368 2.99377 18.7512 2.99377H23.2531C23.6675 2.99377 24.0034 3.3297 24.0034 3.74409V5.87197C24.0034 6.28636 23.6675 6.62229 23.2531 6.62229H18.0009" stroke="#17776A" stroke-width="2.25" stroke-linecap="round" stroke-linejoin="round"/>
<path d="M22.5026 19.5006H13.4988" stroke="#17776A" stroke-width="2.25" stroke-linecap="round" stroke-linejoin="round"/>
</svg>
