<svg width="36" height="36" viewBox="0 0 36 36" fill="none" xmlns="http://www.w3.org/2000/svg">
<path d="M17.9996 10.8285C17.95 10.8285 17.9024 10.8484 17.8675 10.8836C17.8326 10.9188 17.8131 10.9665 17.8135 11.0161C17.8135 11.1197 17.8975 11.2037 18.0011 11.2037C18.1047 11.2037 18.1887 11.1197 18.1887 11.0161C18.1871 10.9126 18.1031 10.8293 17.9996 10.8285" stroke="#17776A" stroke-width="2.25" stroke-linecap="round" stroke-linejoin="round"/>
<path fill-rule="evenodd" clip-rule="evenodd" d="M31.4637 15.4984H4.53647C4.32647 15.4988 4.12493 15.4157 3.9763 15.2674C3.82767 15.119 3.74414 14.9176 3.74414 14.7076V11.7424C3.74463 11.0968 4.15802 10.5238 4.77057 10.3198L17.4989 6.07602C17.8243 5.96799 18.1759 5.96799 18.5013 6.07602L31.2296 10.3198C31.8421 10.5238 32.2555 11.0968 32.256 11.7424V14.7076C32.256 14.9176 32.1725 15.119 32.0239 15.2674C31.8752 15.4157 31.6737 15.4988 31.4637 15.4984Z" stroke="#17776A" stroke-width="2.25" stroke-linecap="round" stroke-linejoin="round"/>
<path d="M5.99445 27.0037V15.4984" stroke="#17776A" stroke-width="2.25" stroke-linecap="round" stroke-linejoin="round"/>
<path d="M30.0042 15.4985V27.0038" stroke="#17776A" stroke-width="2.25" stroke-linecap="round" stroke-linejoin="round"/>
<path d="M11.9974 15.4985V27.0038" stroke="#17776A" stroke-width="2.25" stroke-linecap="round" stroke-linejoin="round"/>
<path d="M17.9993 15.4985V27.0038" stroke="#17776A" stroke-width="2.25" stroke-linecap="round" stroke-linejoin="round"/>
<path d="M24.0032 15.4984V27.0037" stroke="#17776A" stroke-width="2.25" stroke-linecap="round" stroke-linejoin="round"/>
<path fill-rule="evenodd" clip-rule="evenodd" d="M30.5786 27.0037H5.42215C4.85392 27.004 4.33459 27.3253 4.08059 27.8336L3.15321 29.6883C3.04848 29.8964 2.99414 30.1262 2.99414 30.3591V31.5056H33.0066V30.3591C33.0066 30.1262 32.9523 29.8964 32.8476 29.6883L31.9202 27.8336C31.6662 27.3253 31.1469 27.004 30.5786 27.0037Z" stroke="#17776A" stroke-width="2.25" stroke-linecap="round" stroke-linejoin="round"/>
<path d="M34.5058 31.5056H1.492" stroke="#17776A" stroke-width="2.25" stroke-linecap="round" stroke-linejoin="round"/>
</svg>
