<svg width="40" height="40" viewBox="0 0 40 40" fill="none" xmlns="http://www.w3.org/2000/svg">
<path d="M15.8745 19.87V23.7466C15.8743 24.5989 16.3559 25.3781 17.1183 25.7591L17.9887 26.1943C19.2557 26.8275 20.7467 26.8275 22.0137 26.1943L22.8841 25.7591C23.6465 25.3781 24.1281 24.5989 24.1279 23.7466V19.87" stroke="#323232" stroke-width="2.5" stroke-linecap="round" stroke-linejoin="round"/>
<path d="M29.8779 6.64783H26.8216V9.7041" stroke="#323232" stroke-width="2.5" stroke-linecap="round" stroke-linejoin="round"/>
<path d="M20.0005 34.266C26.5266 34.2746 32.2255 29.851 33.8359 23.5266C35.4464 17.2023 32.5571 10.5918 26.8216 7.47815" stroke="#323232" stroke-width="2.5" stroke-linecap="round" stroke-linejoin="round"/>
<path d="M13.1788 30.296V33.3523H10.1225" stroke="#323232" stroke-width="2.5" stroke-linecap="round" stroke-linejoin="round"/>
<path d="M13.1789 32.5219C9.2255 30.3756 6.51775 26.4886 5.87455 22.0365C5.23136 17.5843 6.72825 13.0899 9.9125 9.91246V9.91246C12.5836 7.22965 16.2142 5.72278 20 5.72571" stroke="#323232" stroke-width="2.5" stroke-linecap="round" stroke-linejoin="round"/>
<path fill-rule="evenodd" clip-rule="evenodd" d="M13.1869 18.526L18.3341 21.0971C19.3871 21.6224 20.6257 21.6224 21.6788 21.0971L26.8209 18.526C27.2435 18.3153 27.5106 17.8837 27.5106 17.4114C27.5106 16.9392 27.2435 16.5075 26.8209 16.2968L21.6688 13.7257C20.6161 13.1989 19.3767 13.1989 18.324 13.7257L13.1869 16.2968C12.7643 16.5075 12.4972 16.9392 12.4972 17.4114C12.4972 17.8837 12.7643 18.3153 13.1869 18.526V18.526Z" stroke="#323232" stroke-width="2.5" stroke-linecap="round" stroke-linejoin="round"/>
<path d="M27.5041 17.4106V20.4119" stroke="#323232" stroke-width="2.5" stroke-linecap="round" stroke-linejoin="round"/>
</svg>
