<svg width="132" height="132" viewBox="0 0 132 132" fill="none" xmlns="http://www.w3.org/2000/svg">
<path d="M0 0H5.28V5.28H0V0ZM5.28 0H10.56V5.28H5.28V0ZM10.56 0H15.84V5.28H10.56V0ZM15.84 0H21.12V5.28H15.84V0ZM21.12 0H26.4V5.28H21.12V0ZM26.4 0H31.68V5.28H26.4V0ZM31.68 0H36.96V5.28H31.68V0ZM47.52 0H52.8V5.28H47.52V0ZM52.8 0H58.08V5.28H52.8V0ZM58.08 0H63.36V5.28H58.08V0ZM63.36 0H68.64V5.28H63.36V0ZM68.64 0H73.92V5.28H68.64V0ZM95.04 0H100.32V5.28H95.04V0ZM100.32 0H105.6V5.28H100.32V0ZM105.6 0H110.88V5.28H105.6V0ZM110.88 0H116.16V5.28H110.88V0ZM116.16 0H121.44V5.28H116.16V0ZM121.44 0H126.72V5.28H121.44V0ZM126.72 0H132V5.28H126.72V0ZM0 5.28H5.28V10.56H0V5.28ZM31.68 5.28H36.96V10.56H31.68V5.28ZM42.24 5.28H47.52V10.56H42.24V5.28ZM47.52 5.28H52.8V10.56H47.52V5.28ZM52.8 5.28H58.08V10.56H52.8V5.28ZM63.36 5.28H68.64V10.56H63.36V5.28ZM68.64 5.28H73.92V10.56H68.64V5.28ZM95.04 5.28H100.32V10.56H95.04V5.28ZM126.72 5.28H132V10.56H126.72V5.28ZM0 10.56H5.28V15.84H0V10.56ZM10.56 10.56H15.84V15.84H10.56V10.56ZM15.84 10.56H21.12V15.84H15.84V10.56ZM21.12 10.56H26.4V15.84H21.12V10.56ZM31.68 10.56H36.96V15.84H31.68V10.56ZM52.8 10.56H58.08V15.84H52.8V10.56ZM68.64 10.56H73.92V15.84H68.64V10.56ZM73.92 10.56H79.2V15.84H73.92V10.56ZM95.04 10.56H100.32V15.84H95.04V10.56ZM105.6 10.56H110.88V15.84H105.6V10.56ZM110.88 10.56H116.16V15.84H110.88V10.56ZM116.16 10.56H121.44V15.84H116.16V10.56ZM126.72 10.56H132V15.84H126.72V10.56ZM0 15.84H5.28V21.12H0V15.84ZM10.56 15.84H15.84V21.12H10.56V15.84ZM15.84 15.84H21.12V21.12H15.84V15.84ZM21.12 15.84H26.4V21.12H21.12V15.84ZM31.68 15.84H36.96V21.12H31.68V15.84ZM42.24 15.84H47.52V21.12H42.24V15.84ZM47.52 15.84H52.8V21.12H47.52V15.84ZM52.8 15.84H58.08V21.12H52.8V15.84ZM58.08 15.84H63.36V21.12H58.08V15.84ZM63.36 15.84H68.64V21.12H63.36V15.84ZM68.64 15.84H73.92V21.12H68.64V15.84ZM79.2 15.84H84.48V21.12H79.2V15.84ZM84.48 15.84H89.76V21.12H84.48V15.84ZM95.04 15.84H100.32V21.12H95.04V15.84ZM105.6 15.84H110.88V21.12H105.6V15.84ZM110.88 15.84H116.16V21.12H110.88V15.84ZM116.16 15.84H121.44V21.12H116.16V15.84ZM126.72 15.84H132V21.12H126.72V15.84ZM0 21.12H5.28V26.4H0V21.12ZM10.56 21.12H15.84V26.4H10.56V21.12ZM15.84 21.12H21.12V26.4H15.84V21.12ZM21.12 21.12H26.4V26.4H21.12V21.12ZM31.68 21.12H36.96V26.4H31.68V21.12ZM42.24 21.12H47.52V26.4H42.24V21.12ZM47.52 21.12H52.8V26.4H47.52V21.12ZM52.8 21.12H58.08V26.4H52.8V21.12ZM58.08 21.12H63.36V26.4H58.08V21.12ZM68.64 21.12H73.92V26.4H68.64V21.12ZM95.04 21.12H100.32V26.4H95.04V21.12ZM105.6 21.12H110.88V26.4H105.6V21.12ZM110.88 21.12H116.16V26.4H110.88V21.12ZM116.16 21.12H121.44V26.4H116.16V21.12ZM126.72 21.12H132V26.4H126.72V21.12ZM0 26.4H5.28V31.68H0V26.4ZM31.68 26.4H36.96V31.68H31.68V26.4ZM47.52 26.4H52.8V31.68H47.52V26.4ZM52.8 26.4H58.08V31.68H52.8V26.4ZM58.08 26.4H63.36V31.68H58.08V26.4ZM68.64 26.4H73.92V31.68H68.64V26.4ZM84.48 26.4H89.76V31.68H84.48V26.4ZM95.04 26.4H100.32V31.68H95.04V26.4ZM126.72 26.4H132V31.68H126.72V26.4ZM0 31.68H5.28V36.96H0V31.68ZM5.28 31.68H10.56V36.96H5.28V31.68ZM10.56 31.68H15.84V36.96H10.56V31.68ZM15.84 31.68H21.12V36.96H15.84V31.68ZM21.12 31.68H26.4V36.96H21.12V31.68ZM26.4 31.68H31.68V36.96H26.4V31.68ZM31.68 31.68H36.96V36.96H31.68V31.68ZM42.24 31.68H47.52V36.96H42.24V31.68ZM52.8 31.68H58.08V36.96H52.8V31.68ZM63.36 31.68H68.64V36.96H63.36V31.68ZM73.92 31.68H79.2V36.96H73.92V31.68ZM84.48 31.68H89.76V36.96H84.48V31.68ZM95.04 31.68H100.32V36.96H95.04V31.68ZM100.32 31.68H105.6V36.96H100.32V31.68ZM105.6 31.68H110.88V36.96H105.6V31.68ZM110.88 31.68H116.16V36.96H110.88V31.68ZM116.16 31.68H121.44V36.96H116.16V31.68ZM121.44 31.68H126.72V36.96H121.44V31.68ZM126.72 31.68H132V36.96H126.72V31.68ZM42.24 36.96H47.52V42.24H42.24V36.96ZM47.52 36.96H52.8V42.24H47.52V36.96ZM63.36 36.96H68.64V42.24H63.36V36.96ZM68.64 36.96H73.92V42.24H68.64V36.96ZM73.92 36.96H79.2V42.24H73.92V36.96ZM79.2 36.96H84.48V42.24H79.2V36.96ZM5.28 42.24H10.56V47.52H5.28V42.24ZM15.84 42.24H21.12V47.52H15.84V42.24ZM21.12 42.24H26.4V47.52H21.12V42.24ZM26.4 42.24H31.68V47.52H26.4V42.24ZM31.68 42.24H36.96V47.52H31.68V42.24ZM42.24 42.24H47.52V47.52H42.24V42.24ZM47.52 42.24H52.8V47.52H47.52V42.24ZM52.8 42.24H58.08V47.52H52.8V42.24ZM63.36 42.24H68.64V47.52H63.36V42.24ZM79.2 42.24H84.48V47.52H79.2V42.24ZM84.48 42.24H89.76V47.52H84.48V42.24ZM89.76 42.24H95.04V47.52H89.76V42.24ZM95.04 42.24H100.32V47.52H95.04V42.24ZM105.6 42.24H110.88V47.52H105.6V42.24ZM110.88 42.24H116.16V47.52H110.88V42.24ZM121.44 42.24H126.72V47.52H121.44V42.24ZM0 47.52H5.28V52.8H0V47.52ZM10.56 47.52H15.84V52.8H10.56V47.52ZM15.84 47.52H21.12V52.8H15.84V47.52ZM21.12 47.52H26.4V52.8H21.12V47.52ZM36.96 47.52H42.24V52.8H36.96V47.52ZM42.24 47.52H47.52V52.8H42.24V47.52ZM52.8 47.52H58.08V52.8H52.8V47.52ZM58.08 47.52H63.36V52.8H58.08V47.52ZM63.36 47.52H68.64V52.8H63.36V47.52ZM68.64 47.52H73.92V52.8H68.64V47.52ZM73.92 47.52H79.2V52.8H73.92V47.52ZM79.2 47.52H84.48V52.8H79.2V47.52ZM89.76 47.52H95.04V52.8H89.76V47.52ZM100.32 47.52H105.6V52.8H100.32V47.52ZM105.6 47.52H110.88V52.8H105.6V47.52ZM110.88 47.52H116.16V52.8H110.88V47.52ZM116.16 47.52H121.44V52.8H116.16V47.52ZM121.44 47.52H126.72V52.8H121.44V47.52ZM0 52.8H5.28V58.08H0V52.8ZM5.28 52.8H10.56V58.08H5.28V52.8ZM26.4 52.8H31.68V58.08H26.4V52.8ZM31.68 52.8H36.96V58.08H31.68V52.8ZM36.96 52.8H42.24V58.08H36.96V52.8ZM63.36 52.8H68.64V58.08H63.36V52.8ZM68.64 52.8H73.92V58.08H68.64V52.8ZM79.2 52.8H84.48V58.08H79.2V52.8ZM84.48 52.8H89.76V58.08H84.48V52.8ZM89.76 52.8H95.04V58.08H89.76V52.8ZM100.32 52.8H105.6V58.08H100.32V52.8ZM105.6 52.8H110.88V58.08H105.6V52.8ZM110.88 52.8H116.16V58.08H110.88V52.8ZM126.72 52.8H132V58.08H126.72V52.8ZM10.56 58.08H15.84V63.36H10.56V58.08ZM21.12 58.08H26.4V63.36H21.12V58.08ZM26.4 58.08H31.68V63.36H26.4V58.08ZM36.96 58.08H42.24V63.36H36.96V58.08ZM42.24 58.08H47.52V63.36H42.24V58.08ZM58.08 58.08H63.36V63.36H58.08V58.08ZM63.36 58.08H68.64V63.36H63.36V58.08ZM73.92 58.08H79.2V63.36H73.92V58.08ZM95.04 58.08H100.32V63.36H95.04V58.08ZM100.32 58.08H105.6V63.36H100.32V58.08ZM105.6 58.08H110.88V63.36H105.6V58.08ZM110.88 58.08H116.16V63.36H110.88V58.08ZM116.16 58.08H121.44V63.36H116.16V58.08ZM121.44 58.08H126.72V63.36H121.44V58.08ZM126.72 58.08H132V63.36H126.72V58.08ZM5.28 63.36H10.56V68.64H5.28V63.36ZM10.56 63.36H15.84V68.64H10.56V63.36ZM31.68 63.36H36.96V68.64H31.68V63.36ZM42.24 63.36H47.52V68.64H42.24V63.36ZM47.52 63.36H52.8V68.64H47.52V63.36ZM63.36 63.36H68.64V68.64H63.36V63.36ZM68.64 63.36H73.92V68.64H68.64V63.36ZM73.92 63.36H79.2V68.64H73.92V63.36ZM84.48 63.36H89.76V68.64H84.48V63.36ZM89.76 63.36H95.04V68.64H89.76V63.36ZM95.04 63.36H100.32V68.64H95.04V63.36ZM100.32 63.36H105.6V68.64H100.32V63.36ZM126.72 63.36H132V68.64H126.72V63.36ZM0 68.64H5.28V73.92H0V68.64ZM5.28 68.64H10.56V73.92H5.28V68.64ZM10.56 68.64H15.84V73.92H10.56V68.64ZM15.84 68.64H21.12V73.92H15.84V68.64ZM21.12 68.64H26.4V73.92H21.12V68.64ZM36.96 68.64H42.24V73.92H36.96V68.64ZM42.24 68.64H47.52V73.92H42.24V68.64ZM52.8 68.64H58.08V73.92H52.8V68.64ZM58.08 68.64H63.36V73.92H58.08V68.64ZM73.92 68.64H79.2V73.92H73.92V68.64ZM79.2 68.64H84.48V73.92H79.2V68.64ZM84.48 68.64H89.76V73.92H84.48V68.64ZM105.6 68.64H110.88V73.92H105.6V68.64ZM121.44 68.64H126.72V73.92H121.44V68.64ZM0 73.92H5.28V79.2H0V73.92ZM5.28 73.92H10.56V79.2H5.28V73.92ZM10.56 73.92H15.84V79.2H10.56V73.92ZM15.84 73.92H21.12V79.2H15.84V73.92ZM21.12 73.92H26.4V79.2H21.12V73.92ZM31.68 73.92H36.96V79.2H31.68V73.92ZM42.24 73.92H47.52V79.2H42.24V73.92ZM58.08 73.92H63.36V79.2H58.08V73.92ZM63.36 73.92H68.64V79.2H63.36V73.92ZM68.64 73.92H73.92V79.2H68.64V73.92ZM79.2 73.92H84.48V79.2H79.2V73.92ZM84.48 73.92H89.76V79.2H84.48V73.92ZM89.76 73.92H95.04V79.2H89.76V73.92ZM105.6 73.92H110.88V79.2H105.6V73.92ZM110.88 73.92H116.16V79.2H110.88V73.92ZM116.16 73.92H121.44V79.2H116.16V73.92ZM121.44 73.92H126.72V79.2H121.44V73.92ZM126.72 73.92H132V79.2H126.72V73.92ZM0 79.2H5.28V84.48H0V79.2ZM10.56 79.2H15.84V84.48H10.56V79.2ZM15.84 79.2H21.12V84.48H15.84V79.2ZM21.12 79.2H26.4V84.48H21.12V79.2ZM26.4 79.2H31.68V84.48H26.4V79.2ZM36.96 79.2H42.24V84.48H36.96V79.2ZM42.24 79.2H47.52V84.48H42.24V79.2ZM79.2 79.2H84.48V84.48H79.2V79.2ZM84.48 79.2H89.76V84.48H84.48V79.2ZM100.32 79.2H105.6V84.48H100.32V79.2ZM110.88 79.2H116.16V84.48H110.88V79.2ZM116.16 79.2H121.44V84.48H116.16V79.2ZM126.72 79.2H132V84.48H126.72V79.2ZM0 84.48H5.28V89.76H0V84.48ZM15.84 84.48H21.12V89.76H15.84V84.48ZM31.68 84.48H36.96V89.76H31.68V84.48ZM36.96 84.48H42.24V89.76H36.96V84.48ZM47.52 84.48H52.8V89.76H47.52V84.48ZM52.8 84.48H58.08V89.76H52.8V84.48ZM63.36 84.48H68.64V89.76H63.36V84.48ZM68.64 84.48H73.92V89.76H68.64V84.48ZM79.2 84.48H84.48V89.76H79.2V84.48ZM84.48 84.48H89.76V89.76H84.48V84.48ZM89.76 84.48H95.04V89.76H89.76V84.48ZM95.04 84.48H100.32V89.76H95.04V84.48ZM100.32 84.48H105.6V89.76H100.32V84.48ZM105.6 84.48H110.88V89.76H105.6V84.48ZM116.16 84.48H121.44V89.76H116.16V84.48ZM121.44 84.48H126.72V89.76H121.44V84.48ZM42.24 89.76H47.52V95.04H42.24V89.76ZM58.08 89.76H63.36V95.04H58.08V89.76ZM63.36 89.76H68.64V95.04H63.36V89.76ZM84.48 89.76H89.76V95.04H84.48V89.76ZM105.6 89.76H110.88V95.04H105.6V89.76ZM116.16 89.76H121.44V95.04H116.16V89.76ZM121.44 89.76H126.72V95.04H121.44V89.76ZM0 95.04H5.28V100.32H0V95.04ZM5.28 95.04H10.56V100.32H5.28V95.04ZM10.56 95.04H15.84V100.32H10.56V95.04ZM15.84 95.04H21.12V100.32H15.84V95.04ZM21.12 95.04H26.4V100.32H21.12V95.04ZM26.4 95.04H31.68V100.32H26.4V95.04ZM31.68 95.04H36.96V100.32H31.68V95.04ZM73.92 95.04H79.2V100.32H73.92V95.04ZM84.48 95.04H89.76V100.32H84.48V95.04ZM95.04 95.04H100.32V100.32H95.04V95.04ZM105.6 95.04H110.88V100.32H105.6V95.04ZM126.72 95.04H132V100.32H126.72V95.04ZM0 100.32H5.28V105.6H0V100.32ZM31.68 100.32H36.96V105.6H31.68V100.32ZM42.24 100.32H47.52V105.6H42.24V100.32ZM47.52 100.32H52.8V105.6H47.52V100.32ZM63.36 100.32H68.64V105.6H63.36V100.32ZM79.2 100.32H84.48V105.6H79.2V100.32ZM84.48 100.32H89.76V105.6H84.48V100.32ZM105.6 100.32H110.88V105.6H105.6V100.32ZM126.72 100.32H132V105.6H126.72V100.32ZM0 105.6H5.28V110.88H0V105.6ZM10.56 105.6H15.84V110.88H10.56V105.6ZM15.84 105.6H21.12V110.88H15.84V105.6ZM21.12 105.6H26.4V110.88H21.12V105.6ZM31.68 105.6H36.96V110.88H31.68V105.6ZM42.24 105.6H47.52V110.88H42.24V105.6ZM47.52 105.6H52.8V110.88H47.52V105.6ZM58.08 105.6H63.36V110.88H58.08V105.6ZM63.36 105.6H68.64V110.88H63.36V105.6ZM73.92 105.6H79.2V110.88H73.92V105.6ZM79.2 105.6H84.48V110.88H79.2V105.6ZM84.48 105.6H89.76V110.88H84.48V105.6ZM89.76 105.6H95.04V110.88H89.76V105.6ZM95.04 105.6H100.32V110.88H95.04V105.6ZM100.32 105.6H105.6V110.88H100.32V105.6ZM105.6 105.6H110.88V110.88H105.6V105.6ZM121.44 105.6H126.72V110.88H121.44V105.6ZM126.72 105.6H132V110.88H126.72V105.6ZM0 110.88H5.28V116.16H0V110.88ZM10.56 110.88H15.84V116.16H10.56V110.88ZM15.84 110.88H21.12V116.16H15.84V110.88ZM21.12 110.88H26.4V116.16H21.12V110.88ZM31.68 110.88H36.96V116.16H31.68V110.88ZM42.24 110.88H47.52V116.16H42.24V110.88ZM47.52 110.88H52.8V116.16H47.52V110.88ZM52.8 110.88H58.08V116.16H52.8V110.88ZM73.92 110.88H79.2V116.16H73.92V110.88ZM89.76 110.88H95.04V116.16H89.76V110.88ZM95.04 110.88H100.32V116.16H95.04V110.88ZM121.44 110.88H126.72V116.16H121.44V110.88ZM126.72 110.88H132V116.16H126.72V110.88ZM0 116.16H5.28V121.44H0V116.16ZM10.56 116.16H15.84V121.44H10.56V116.16ZM15.84 116.16H21.12V121.44H15.84V116.16ZM21.12 116.16H26.4V121.44H21.12V116.16ZM31.68 116.16H36.96V121.44H31.68V116.16ZM63.36 116.16H68.64V121.44H63.36V116.16ZM73.92 116.16H79.2V121.44H73.92V116.16ZM79.2 116.16H84.48V121.44H79.2V116.16ZM84.48 116.16H89.76V121.44H84.48V116.16ZM105.6 116.16H110.88V121.44H105.6V116.16ZM110.88 116.16H116.16V121.44H110.88V116.16ZM116.16 116.16H121.44V121.44H116.16V116.16ZM121.44 116.16H126.72V121.44H121.44V116.16ZM126.72 116.16H132V121.44H126.72V116.16ZM0 121.44H5.28V126.72H0V121.44ZM31.68 121.44H36.96V126.72H31.68V121.44ZM42.24 121.44H47.52V126.72H42.24V121.44ZM47.52 121.44H52.8V126.72H47.52V121.44ZM79.2 121.44H84.48V126.72H79.2V121.44ZM95.04 121.44H100.32V126.72H95.04V121.44ZM100.32 121.44H105.6V126.72H100.32V121.44ZM105.6 121.44H110.88V126.72H105.6V121.44ZM116.16 121.44H121.44V126.72H116.16V121.44ZM121.44 121.44H126.72V126.72H121.44V121.44ZM126.72 121.44H132V126.72H126.72V121.44ZM0 126.72H5.28V132H0V126.72ZM5.28 126.72H10.56V132H5.28V126.72ZM10.56 126.72H15.84V132H10.56V126.72ZM15.84 126.72H21.12V132H15.84V126.72ZM21.12 126.72H26.4V132H21.12V126.72ZM26.4 126.72H31.68V132H26.4V126.72ZM31.68 126.72H36.96V132H31.68V126.72ZM52.8 126.72H58.08V132H52.8V126.72ZM58.08 126.72H63.36V132H58.08V126.72ZM63.36 126.72H68.64V132H63.36V126.72ZM73.92 126.72H79.2V132H73.92V126.72ZM84.48 126.72H89.76V132H84.48V126.72ZM95.04 126.72H100.32V132H95.04V126.72ZM110.88 126.72H116.16V132H110.88V126.72ZM126.72 126.72H132V132H126.72V126.72Z" fill="#323232"/>
</svg>
